<?xml version="1.0" encoding="UTF-8"?>
<svg id="a" data-name="Layer 1" xmlns="http://www.w3.org/2000/svg" width="507.66" height="612.71" viewBox="0 0 507.66 612.71">
  <g id="b" data-name="Generative Object">
    <path d="M229.2,512h-14.74s-62.43-29.16-62.43-29.16l-105.73-48.98c-2.5-1.16-2.76-3.97-2.77-6.52l-.32-52.42-.21-17.24-39.58-17.95c-1.97-.89-3.15-2.36-3.38-4.13-.26-1.93.93-3.56,2.33-5.01l13.74-14.25,14.28-14.81,13.31-13.68,20.16-8.98,42.15-19.33-39.14-65.85c-2.52-4.24-2.75-11.3,1.87-14.07l41.05-24.59,85.51-50.28c4.05-2.38,9.49.26,12.25,3.12l4.91,7.37,104.9,12.44,25.04,2.8c3.87.43,7.05,1.56,9.18,4.18,2.51,3.09,3.04,6.29,2.53,10.45l-14.15,116.34,37.93,16.62,19.1,8.07,8.42,8.56,36.01,36.3c.94,2.02.9,5.28-1.36,6.35l-40.56,19.11.07,72.99c-.74,1.82-2.72,2.86-4.47,3.69l-77.87,36.79-88.02,42.07ZM201.82,113.38c-1.25-1.57-2.95-1.83-4.58-.48,1.45.63,2.7.81,4.58.48ZM163.62,293.35l-10.51,6.12c-1.09.64-2.02.62-3.03.17-.78-.35-1.09-1.02-1.64-1.94l-16.7-27.79-45.75-76.72c-.75-1.25-1.22-2.15-.89-3.27.29-.98.94-1.4,2.04-2.05l62.77-37.07,33.29-19.48,1.64-11.07-64.87,38.18-44.19,26.07c-1.07.63-3.61,2.11-2.52,3.94l33.31,55.97,50.26,83.92c.91,1.52,2.69,4,4.73,2.82l41.54-23.87-30.08-3.89c-5.22-.68-8.42-4.69-9.4-10.03ZM325.97,309.07l13.77-112.75,6.59-53.89c.26-2.16-.72-3.45-2.89-3.69l-36.06-4.1-87.56-10.4-23.93-3.04c-1.42-.18-3.33.61-3.55,2.31l-4.64,36.53-16.18,132.4c-.21,1.74,1.87,2.81,3.14,2.96l148.06,18.23c2.36.29,2.97-2.38,3.23-4.55ZM152.86,291.9l11.46-6.88,17.65-145.1-31.54,18.34-57.23,33.88,32.32,54.39,27.33,45.38ZM148.66,330.68l-37.59-63.06-52.25,23.98,89.84,39.08ZM381.91,290.52l-43.16-19.33-4.86,41.05,48.01-21.72ZM385.83,352.07l42.98-19.92-11.3-11.64-21.51-21.82c-.39-.69-1.73-2.76-2.89-2.61l-47.9,21.55-114.96,51.5c.31.77.76,1.47,1.35,2.07l35.33,35.57,118.88-54.69ZM187.57,396.59l10.97-11.5,10.02-10.57,4.76-5.13-110.49-48.19-54.53-23.98-7.36,7.5-17.38,17.95-10.39,11.03,163.64,73.96,10.77-11.08ZM303.59,325.75l10.51-4.96-96.92-11.84-51.13,29.41,55.58,24.13,81.96-36.75ZM226.4,451.11l.33,51.18,50.83-24.02,112.64-53.34-.19-64.13-120.5,55.4c-2.04,1.31-3.69,1.42-6.15.66l-37.19-37.31.1,50.97.13,20.59ZM216.76,388.62l-.31-7.98-9.44,9.74-12.14,12.67-11.13,11.66c-1.45,1.52-4.15,4.2-6.57,3.44l-77.07-34.56-47.61-21.56v9.47s.31,47.36.31,47.36c.02,2.76-.02,5.16.58,7.81l140.21,64.86,23.53,10.97-.18-95.12-.31-10.16c-.09-2.92.25-5.78.14-8.62Z" fill="#342514"/>
    <path d="M455.44,84.81c-9.03-3.67-18.62-4.45-28.37-3.05-5.12-41.32-40.71-73.33-81.85-71.39-21.35,1-41.34,10.89-54.57,27.72-4.99,6.34-8.36,12.93-11.93,20.25-20.17-8.76-43.44-5.47-57.93,11.49-6.88,8.05-10.29,17.56-11.51,28.23-3.2-1.78-6.19-2.39-9.83-2.71,3.59-28.52,24.25-49.67,52.66-51.74,7.32-.53,14.34.36,21.38,2.11,13.63-25.51,36.97-42,65.16-45.16,46.49-5.21,85.82,26,96.82,70.33,7.48.07,14.45,1.17,21.24,3.52,23.9,8.26,39.24,31.36,37.36,56.65-2.06,27.85-23.13,50.04-51.13,53.24-11.41,1.31-22.31,1.75-33.93,1.39l-49.22-1.54,1.6-10.11,51.34,1.42c10.91.3,21.29-.05,31.84-1.74s20.12-7.09,27.61-15.37c6.93-7.65,10.95-17.24,11.77-27.75,1.56-19.94-10.08-38.3-28.52-45.8Z" fill="#352514"/>
    <path d="M201.82,113.38c-1.88.32-3.13.15-4.58-.48,1.64-1.34,3.33-1.08,4.58.48Z" fill="#eee8da"/>
    <path d="M317.01,280.42l-130.36-15.97c-.85-.1-1.47-.53-1.84-.78-.54-.37-.83-1.5-.73-2.35l3.38-28.63,12.26-99.69c.14-1.11,1.42-2.33,2.73-2.17l132.3,15.84c1.58.19,2.02,2.54,1.89,3.66l-8.49,70.27-7.05,57.48c-.11.89-.68,1.61-1.07,1.99-.51.5-1.48.54-3.03.35ZM322.86,208.71l6.84-56.12-124-14.67-14.63,120.43,123.89,15.22,7.9-64.86Z" fill="#332413"/>
  </g>
  <path d="M331.61,612.71c-25.28-26.7-48.37-55.47-68.99-85.91" fill="none"/>
  <path d="M334.36,577.89c5.76-6.26,9.72-13.92,14.02-21.26,13.99-23.85,32.33-45.15,53.83-62.52" fill="none"/>
  <path d="M377.88,567.76c7.36,0,14.16-3.66,20.65-7.14,29.66-15.88,61.17-30.24,94.75-32.47" fill="none"/>
  <path d="M255.93,578.21c68.41,4.36,136.93,7.09,205.47,8.17" fill="none"/>
  <path d="M448.22,515.82c-.32,8.11-1.07,16.2-2.25,24.24-1.16,7.86-2.77,15.8-6.55,22.8s-10.03,13-17.76,14.84" fill="none"/>
  <path d="M266.87,577.72c76.63,8.02,153.99,9.14,230.82,3.32" fill="none"/>
  <path d="M467.77,477.62c11.43,13.85,24.92,26,39.89,35.92" fill="none"/>
  <path d="M470.87,561.32c-9.62,17.21-24.19,31.62-41.51,41.05" fill="none"/>
  <path d="M343.77,582.83c42.63-24.86,80.49-57.86,110.94-96.69" fill="none"/>
</svg>