<?xml version="1.0" encoding="UTF-8"?>
<svg id="a" data-name="Layer 1" xmlns="http://www.w3.org/2000/svg" width="612" height="792" viewBox="0 0 612 792">
  <path d="M271.95,266.29c-.41,5.48-4.68,11.88-7.65,10.88-.66-.22-1.62-1.33-.95-2.06l3.32-3.6c1.78-1.93,2.78-6.72.23-7.77-.82-.34-2.13-.12-2.75.77l-3.28,4.67c-1.14,1.62-2.66,2.98-4.73,3.32s-3.88-.7-5.16-1.91c-3.66-3.48-1.69-10.99,3.53-14.34.78-.5,1.59-.29,2.1.07.64.45,1.06,1.69.23,2.24-3.97,2.59-5.46,7.47-3.03,9.29,4.49,3.36,5.99-7.58,11.73-8.27,3.74-.45,6.69,3.02,6.41,6.73Z" fill="#332618"/>
  <path d="M380.33,211.15c-2.79,4.55-11.02,3.12-15.54-.45-.76-.6-.72-1.64-.57-2.32.12-.56,1.2-1.5,1.96-.93,4.62,3.5,10.36,4.36,11.14,1.11.99-4.15-8.46-3.86-10.22-8.6-1.35-3.65,1.18-7.62,4.96-8.3,5.33-.96,11.71,1.92,10.85,5.01-.15.53-1.11,1.31-1.84.79-4.79-3.44-9.7-3.4-10.27-.25-.21,1.16.38,2.27,1.51,2.79l5.21,2.41c1.37.63,2.65,1.53,3.31,2.96.83,1.8.64,3.92-.5,5.78Z" fill="#37281a"/>
  <path d="M269.21,252.08l6.36,4.23c.98.65,1.32,1.65.89,2.58-.46,1-1.8,1.51-2.9.81l-16.09-10.31c-1-.64-1.21-1.7-.79-2.65.35-.8,1.59-1.51,2.55-.9l6.4,4.09c-.48-1.78-.41-3.28.34-4.91,1.29-2.79,4.69-4.18,7.42-2.43l7.99,5.12c1.01.64,1.02,1.94.57,2.7-.57.96-1.78,1.21-2.78.57l-7.14-4.63c-1.49-.97-3.13-.24-3.83,1.28s-.58,3.38,1.02,4.45Z" fill="#38291a"/>
  <path d="M343.47,211.97c-.62.98-1.65,1.2-2.41.94-1-.33-1.42-1.57-.79-2.56l3.7-5.8-4.78-5.22c-.59-.65.16-1.64.63-1.87.58-.28,1.7-.53,2.27.03l4.1,4.02,3.24-4.93c.52-.8,1.83-.56,2.37-.22.82.52.78,1.65.26,2.47l-3.29,5.15,5.3,5.52c.63.66.13,1.69-.32,2.01-.68.5-1.88.78-2.53.1l-4.52-4.7-3.22,5.04Z" fill="#352719"/>
  <path d="M439.05,258.44c.4,1.83.1,3.46-1.14,4.5-1.17.97-3.06,1.56-4.74.72-5.13-2.57-6.22-11.06-3.1-10.83,2.19.16.11,3.78,2.89,6.93.6.68,1.55.89,2.23.46,1.89-1.2-.75-4.8-.32-7.85.24-1.67,1.64-2.78,2.96-3.16,1.65-.47,3.31-.13,4.69,1.07,3.26,2.82,4.15,8.65,1.81,8.94-2.55.33-.72-3.85-3.38-6.35-.57-.54-1.43-.67-1.97-.38-.61.33-.98,1.15-.81,1.95l.87,4Z" fill="#342619"/>
  <path d="M388.34,215.04c.59,1.14,2.96.61,3.26,2.04.13.65-.18,1.56-.94,1.95-1.02.52-2.21.02-3.29-.37-2.44-.89-4.19-3.38-3.26-5.88l3-8.02-1.27-.56c-.74-.33-1.11-.82-1.11-1.46,0-.69.47-1.75,1.35-1.53l2.3.58,1.29-3.29c.32-.82,1.36-.74,1.93-.6.85.2,1.84.89,1.51,1.85l-1.21,3.48,3.09,1.22c.81.32,1.03,1.19.76,2-.23.7-1.13,1.04-2.06.71l-2.96-1.05-2.6,6.9c-.23.62-.06,1.48.22,2.02Z" fill="#342618"/>
  <path d="M422.4,224.79c-2.04,1.88-4.79-3.78-8.06.12l-4.11,4.91c-.91,1.08-1.91,1.53-2.94.78s-1.3-1.97-.39-3.05l7.64-9.04c.8-.95,2.03-1.16,2.86-.44.9.79.88,1.92-.08,3.17,1.95-.63,4.06-.22,5.41,1.43.56.68.12,1.7-.33,2.12Z" fill="#352819"/>
  <path d="M418.5,237.57c-1.04,1.01-1.95,1.66-3.06.87-1.03-.73-1.25-2.22-.16-3.24l8.21-7.77c.87-.83,1.77-1.52,2.84-.87.77.47,1.62,1.82.74,2.68l-8.56,8.33Z" fill="#352619"/>
  <path d="M430.6,225.76c-1.54-.1-2.48-1.28-2.47-2.46,0-1.31,1.19-2.42,2.62-2.05,1.19.31,1.97,1.27,1.99,2.39.01.94-.89,2.2-2.14,2.12Z" fill="#3a2a1d"/>
  <g>
    <path d="M317.41,207.91c3.42,3.24,4.71,9.37.93,12.42-1.87,1.51-4.04,1.94-6.5.94.58,1.39.2,2.29-.83,2.86-.95.52-2.05.1-2.6-1.03l-8.2-16.83c-.56-1.15-.23-2.2,1.03-2.73.75-.31,1.85-.08,2.42,1.04l3.2,6.34c.3-2.51,2.25-3.97,4.22-4.6,2.29-.73,4.55-.11,6.33,1.57Z" fill="#362719"/>
    <path d="M314.99,211c2.2,2.82,2.59,6.46.08,7.79-1.27.68-2.84.66-4.06-.39-1.33-1.14-2.26-2.92-2.53-4.7s.74-3.4,2.1-3.96c1.65-.68,3.31-.16,4.42,1.26Z" fill="#fff"/>
  </g>
  <g>
    <circle cx="283.58" cy="235.83" r="8.03" fill="#342618"/>
    <path d="M283.71,240.32c-2.03-.6-3.45-2.14-4.31-3.85-.78-1.55-.38-3.27.7-4.32,1.19-1.15,2.93-1.31,4.44-.45,2.57,1.46,4.6,4.6,3.11,6.96-.71,1.13-2.21,2.16-3.93,1.65Z" fill="#fff"/>
  </g>
  <g>
    <circle cx="401.61" cy="216.73" r="8.03" fill="#382a1a"/>
    <path d="M403.5,220.47c-1.48,1.4-3.28,1.31-4.63.43-1.49-.97-2.01-2.73-1.34-4.49.47-1.25,1.22-2.43,2.11-3.42,1.24-1.38,3.1-1.34,4.6-.57s2.04,2.52,1.55,4.31c-.38,1.38-1.17,2.69-2.28,3.74Z" fill="#fff"/>
  </g>
  <g>
    <circle cx="329.5" cy="207.83" r="8.02" fill="#362719"/>
    <path d="M333.26,210.47c-.4,1.51-1.76,2.07-2.74,2.21-1.37.19-2.53-.21-3.4-1.32-1.34-1.7-1.97-4.01-1.4-6.13.36-1.34,1.55-2.02,2.51-2.25,1.31-.31,2.68-.11,3.55.97,1.39,1.72,2.07,4.23,1.47,6.52Z" fill="#fff"/>
  </g>
  <g>
    <path d="M425.9,246.82c2.02,1.96,3.65,1.91,3.19,3.45-.2.67-.8,1.05-1.57,1.02-1.73-.08-2.79-1.18-3.93-2.31-3.32-3.29-3.7-8.64-.11-11.78,1.9-1.66,4.24-2.83,6.85-2.59,3.81.34,6.84,3.76,6.78,7.55-.04,2.34-1.63,4.28-3.25,5.68-.97.55-1.83.37-2.41-.46l-5.4-7.6c-2.17,1.86-2.27,4.97-.14,7.04Z" fill="#38291a"/>
    <path d="M432.36,244.51l-4.31-5.85c1.62-1.29,3.98-.97,5.22.46,1.35,1.56,1.24,3.87-.91,5.38Z" fill="#fdfefd"/>
  </g>
  <g>
    <path d="M298.69,228.33c4.28-1.13,3.96-5.35,6.08-4.92,3,.6-.5,6.85-5.84,8.22-3.69.95-6.94-1.17-8.69-4.24-2-3.48-1.43-7.44,1.77-9.94,2.68-2.41,6.43-2.47,9.12.14.75.41,2.17,2.01,1.61,2.89l-8.18,6.27c.96,1.38,2.51,2,4.12,1.57Z" fill="#37281a"/>
    <path d="M299.18,220.38l-5.98,4.47c-.9-1.31-1.12-2.87-.35-4.24.58-1.03,1.86-2.16,3.39-2.06,1.17.07,2.01.58,2.94,1.84Z" fill="#fdfefe"/>
  </g>
  <g>
    <path d="M434.78,291.37c-1.91-15.68-15.42-24.96-31.05-22.6-3.27-23.24-22.59-40.56-46.33-38.85-16.22,1.56-28.33,11.17-34.57,26.11-6.21-2.59-12.71-3.39-19.06-1.73-10.78,2.81-18.04,12.24-18.83,23.31-1.93-.78-3.47-1.24-5.55-1.34.47-4.94,2.1-9.54,4.65-13.83,7.83-12.57,21.48-16.95,35.85-13.53,4.57-8.48,11.3-15.52,19.86-19.87,17.54-8.91,38.7-5.79,53.17,7.46,7.68,7.03,12.93,16.1,15.42,26.23,8.35.11,16.29,2.73,22.35,8.36,7.58,7.05,11.08,17.37,9.36,27.47-2.5,14.51-13.97,24.89-28.49,26.36-7.05.71-13.79.83-20.97.6l-23.68-.79.88-5.62,29.76.71c6.25.15,12.27.08,18.31-1.5,12.01-3.15,19.79-14.64,18.92-26.93Z" fill="#342719"/>
    <g>
      <path d="M194.59,469.89l49.72,23.45,38.99,18.41c5.22,2.46,12.07,2.2,17.22-.29l38.96-18.85,48.98-23.7c1.63-.79,3-.88,3.94.58.88,1.37.51,3.2-1.14,4l-85.43,41.54c-8.18,3.97-17.54,5.19-25.98,1.18l-88.2-41.83c-1.36-.65-1.25-2.66-.76-3.47.7-1.17,2.08-1.8,3.7-1.04Z" fill="#372b1b"/>
      <g>
        <path d="M295.49,503.82h-7.68s-92.6-43.06-92.6-43.06c-.86-.84-1.04-2.22-1.04-3.36l-.25-37.97-21.04-9.53c-1.16-.52-2.08-1.15-2.31-2.13-.34-1.48.35-2.39,1.3-3.37l12.16-12.52,10.64-10.86,33.6-15.17-21.66-36.64c-1.14-1.92-.98-5.55.97-6.72l27.21-16.35,42.78-25.07c2.28-1.34,5.53.65,6.64,2.33l2.35,3.55,72.01,8.51c3.48.41,5.85,3.48,5.43,6.97l-7.7,64.42,31.27,13.52,23.68,24.03c1.02,1.24,1.02,2.85-.18,3.9l-22.39,10.49v39.68c0,.81-.91,1.49-1.56,1.8l-36.14,17.1-55.47,26.47Z" fill="#36291a"/>
        <g>
          <path d="M294.07,431.49l20.17,20.11c1.2.62,2.33.49,3.55-.24l65.6-30.14.13,34.87-89.14,42.14-.31-66.74Z" fill="#fff"/>
          <path d="M288.53,432.27l.23,9.85.14,56.14-89.2-41.28-.36-6.2-.07-28.89,67.82,30.49c.87.39,2.04-.15,2.55-.67l4.16-4.23,7.32-7.62,7.41-7.59Z" fill="#fff"/>
          <polygon points="282.54 430.36 267.06 446.61 177.76 406.24 186.34 397.3 196.77 386.42 236.87 404 286.69 425.73 282.54 430.36" fill="#fff"/>
          <polygon points="386.24 413.93 316.35 446.09 296.18 425.77 385.36 385.72 404.44 405.33 386.24 413.93" fill="#fff"/>
          <polygon points="341.59 399.4 291.58 421.94 261.32 408.85 289.19 392.81 341.59 399.4" fill="#fff"/>
          <polygon points="251.35 404.38 202.88 383.31 231.11 370.27 251.35 404.38" fill="#fff"/>
          <polygon points="378.82 382.72 352.94 394.44 355.55 372.29 378.82 382.72" fill="#fff"/>
          <g>
            <polygon points="254.06 383.35 239.36 359.02 221.49 329.04 269.75 300.67 260.13 379.72 254.06 383.35" fill="#fff"/>
            <path d="M259.75,384.42c.67,2.89,2.37,4.99,5.24,5.39l15.89,2.19-22.68,13.09c-.89-.41-1.51-.98-2.1-1.97l-45.76-76.59c-.1-.6,1-1.31,1.53-1.62l59.31-34.94-.76,5.83-52.77,31.06c-.9.53-1.05,1.46-.59,2.22l3.82,6.38,30.8,51.55c.57.96,1.5,1.22,2.38.76l5.69-3.35Z" fill="#fff"/>
            <path d="M280.88,286.05c-.99.05-1.92.13-2.76-.45.91-.7,2.07-.54,2.76.45Z" fill="#b7b3ad"/>
            <g>
              <rect x="263.85" y="300.27" width="96.12" height="84.78" transform="translate(-66.1 610.63) rotate(-83.02)" fill="#fff"/>
              <g>
                <rect x="275.73" y="298.48" width="73.9" height="75.72" transform="translate(-58.65 606.55) rotate(-83.13)" fill="#342719"/>
                <rect x="279.43" y="302.27" width="66.5" height="68.12" transform="translate(-58.85 606.24) rotate(-83.08)" fill="#fff"/>
              </g>
            </g>
          </g>
        </g>
      </g>
    </g>
  </g>
</svg>